<?xml version="1.0" encoding="UTF-8" standalone="no" ?>
<!DOCTYPE svg PUBLIC "-//W3C//DTD SVG 1.1//EN" "http://www.w3.org/Graphics/SVG/1.1/DTD/svg11.dtd">
<svg xmlns="http://www.w3.org/2000/svg" xmlns:xlink="http://www.w3.org/1999/xlink" version="1.1" width="300" height="300" viewBox="0 0 500 500" xml:space="preserve">
<desc>Created with Fabric.js 4.6.0</desc>
<defs>
</defs>
<g transform="matrix(2.1 0 0 2.1 250.95 405.27)" id="Bwy1VVR31Ee3WM2qfvzOV"  >
<path style="stroke: rgb(0,0,0); stroke-width: 1; stroke-dasharray: none; stroke-linecap: butt; stroke-dashoffset: 0; stroke-linejoin: miter; stroke-miterlimit: 4; fill: rgb(235,240,255); fill-rule: nonzero; opacity: 1;" vector-effect="non-scaling-stroke"  transform=" translate(0, 0)" d="M -99.06425 -12.59947 L 6.410510000000002 -14.37514 L 97.88536 -15.91512 C 97.88536 -15.91512 106.50605 -15.91512 97.88536 -4.641909999999999 C 89.26467000000001 6.631300000000001 33.56175 15.915120000000002 33.56175 15.915120000000002 L -89.1173 15.915120000000002 L -101.71677 -12.599469999999997" stroke-linecap="round" />
</g>
<g transform="matrix(2.1 0 0 2.1 460.32 371.34)" id="I5_kqkEZSTTUQ-bZ72F8r"  >
<path style="stroke: rgb(0,0,0); stroke-width: 1; stroke-dasharray: none; stroke-linecap: round; stroke-dashoffset: 0; stroke-linejoin: round; stroke-miterlimit: 10; fill: none; fill-rule: nonzero; opacity: 1;" vector-effect="non-scaling-stroke"  transform=" translate(-310.3, -199.67)" d="M 310.29457655369407 199.66984218562007 L 310.296576553694 199.66984218562007" stroke-linecap="round" />
</g>
<g transform="matrix(-2.18 0 0 3.2 161.12 189.38)" id="IgrCP9Yjwa_DDSpjpNQxw"  >
<path style="stroke: rgb(0,0,0); stroke-width: 1; stroke-dasharray: none; stroke-linecap: butt; stroke-dashoffset: 0; stroke-linejoin: miter; stroke-miterlimit: 4; fill: rgb(255,246,238); fill-opacity: 0.45; fill-rule: nonzero; opacity: 1;" vector-effect="non-scaling-stroke"  transform=" translate(0, 0)" d="M -40 -40 C -40 -40 -11.229859999999999 -14.67725 8.770139999999998 5.322749999999999 C 28.770139999999998 25.32275 40 40 40 40 L -40 40 z" stroke-linecap="round" />
</g>
<g transform="matrix(2.1 0 0 2.1 354.62 179.18)" id="bX1qIWdwXANebWHfL4ruk"  >
<path style="stroke: rgb(0,0,0); stroke-width: 1; stroke-dasharray: none; stroke-linecap: butt; stroke-dashoffset: 0; stroke-linejoin: miter; stroke-miterlimit: 4; fill: rgb(255,251,247); fill-rule: nonzero; opacity: 1;" vector-effect="non-scaling-stroke"  transform=" translate(0, 0)" d="M -43.76658 -56.63598 L -3.9159000000000006 -19.821650000000005 L 12.85773 -0.0400700000000036 L 12.85773 -0.0400700000000036 C 23.25786 12.225069999999997 31.56753 26.118939999999995 37.453320000000005 41.08403 L 43.766580000000005 57.13599 L 37.00838 54.67846 L 37.00838 54.67846 C 17.656010000000002 47.64123 -3.3768499999999975 46.64515 -23.307669999999995 51.82198 L -43.76657999999999 57.13598 L -39.78779999999999 33.25408 L -39.78779999999999 16.68505 L -39.78779999999999 4.86401 L -43.76657999999999 -57.13599" stroke-linecap="round" />
</g>
<g transform="matrix(2.1 0 0 2.1 256.57 68.14)" id="l0_IyXSuSuvSvA-c4YKrJ"  >
<path style="stroke: rgb(0,0,0); stroke-width: 1; stroke-dasharray: none; stroke-linecap: round; stroke-dashoffset: 0; stroke-linejoin: round; stroke-miterlimit: 10; fill: none; fill-rule: nonzero; opacity: 1;" vector-effect="non-scaling-stroke"  transform=" translate(-213.15, -55.11)" d="M 217.4583802672219 51.79185810073942 Q 217.4573802672219 51.79185810073942 217.12581528048452 51.79185810073942 Q 216.79425029374713 51.79185810073942 216.46268530700974 51.79185810073942 Q 216.13112032027232 51.79185810073942 215.7995553335349 51.79185810073942 Q 215.4679903467975 51.79185810073942 214.8048603733227 51.79185810073942 Q 214.14173039984792 51.79185810073942 213.47860042637313 51.79185810073942 Q 212.81547045289832 51.79185810073942 212.48390546616093 51.79185810073942 Q 212.15234047942351 51.79185810073942 211.4892105059487 51.79185810073942 Q 210.8260805324739 51.79185810073942 210.4945155457365 52.12342308747682 Q 210.1629505589991 52.45498807421423 209.8313855722617 52.786553060951626 Q 209.4998205855243 53.11811804768902 209.1682555987869 53.44968303442642 Q 208.8366906120495 53.78124802116382 208.8366906120495 54.112813007901224 Q 208.8366906120495 54.44437799463863 209.1682555987869 54.44437799463863 Q 209.4998205855243 54.44437799463863 209.8313855722617 54.775942981376026 Q 210.1629505589991 55.107507968113424 210.4945155457365 55.107507968113424 Q 210.8260805324739 55.107507968113424 211.15764551921131 55.77063794158823 Q 211.4892105059487 56.43376791506303 211.8207754926861 56.76533290180043 Q 212.15234047942351 57.096897888537825 212.8154704528983 57.42846287527523 Q 213.4786004263731 57.760027862012635 213.8101654131105 58.09159284875003 Q 214.14173039984792 58.42315783548743 214.47329538658533 58.42315783548743 Q 214.80486037332273 58.42315783548743 215.13642536006012 58.42315783548743 Q 215.4679903467975 58.42315783548743 215.7995553335349 58.42315783548743 Q 216.13112032027232 58.42315783548743 216.46268530700974 58.42315783548743 Q 216.79425029374713 58.42315783548743 216.79425029374713 58.09159284875003 Q 216.79425029374713 57.760027862012635 216.79425029374713 57.09689788853783 L 216.79425029374713 56.43276791506303" stroke-linecap="round" />
</g>
<g transform="matrix(2.1 0 0 2.1 247.15 204.04)" id="eOgC8Yb7UfSdJsddHWgK_"  >
<path style="stroke: rgb(0,0,0); stroke-width: 1; stroke-dasharray: none; stroke-linecap: butt; stroke-dashoffset: 0; stroke-linejoin: miter; stroke-miterlimit: 4; fill: rgb(95,57,0); fill-rule: nonzero; opacity: 1;" vector-effect="non-scaling-stroke"  transform=" translate(0, 0)" d="M -1.81139 64.01198 L -1.81139 -68.49075000000002 L 1.81139 -68.49075000000002 L 1.81139 68.49075999999997 z" stroke-linecap="round" />
</g>
<g transform="matrix(2.1 0 0 2.1 259.35 315.01)" id="DNxRe-csx_aVwZkUqeBgz"  >
<path style="stroke: rgb(0,0,0); stroke-width: 1; stroke-dasharray: none; stroke-linecap: round; stroke-dashoffset: 0; stroke-linejoin: round; stroke-miterlimit: 10; fill: none; fill-rule: nonzero; opacity: 1;" vector-effect="non-scaling-stroke"  transform=" translate(-214.47, -172.81)" d="M 217.4573802672219 163.8598236179808 Q 217.4573802672219 163.8608236179808 217.4573802672219 164.1923886047182 Q 217.4573802672219 164.5239535914556 217.4573802672219 164.85551857819303 Q 217.4573802672219 165.18708356493042 217.4573802672219 165.5186485516678 Q 217.4573802672219 165.8502135384052 217.4573802672219 166.1817785251426 Q 217.4573802672219 166.51334351188 217.4573802672219 166.84490849861743 Q 217.4573802672219 167.17647348535482 217.4573802672219 167.5080384720922 Q 217.4573802672219 167.8396034588296 217.4573802672219 168.5027334323044 Q 217.4573802672219 169.16586340577922 217.4573802672219 169.82899337925403 Q 217.4573802672219 170.4921233527288 217.12581528048452 171.486818312941 Q 216.79425029374713 172.4815132731532 216.46268530700974 173.4762082333654 Q 216.13112032027232 174.4709031935776 215.7995553335349 175.4655981537898 Q 215.4679903467975 176.460293114002 215.13642536006012 177.12342308747682 Q 214.80486037332273 177.78655306095163 214.47329538658533 178.4496830344264 Q 214.14173039984792 179.11281300790122 213.8101654131105 179.44437799463861 Q 213.4786004263731 179.77594298137603 213.14703543963572 180.10750796811345 Q 212.81547045289832 180.43907295485084 212.81547045289832 180.77063794158823 Q 212.81547045289832 181.10220292832562 212.48390546616093 181.10220292832562 Q 212.15234047942351 181.10220292832562 211.8207754926861 181.43376791506302 L 211.4882105059487 181.76633290180044" stroke-linecap="round" />
</g>
<g transform="matrix(2.1 0 0 2.1 453.43 335.19)" id="vsx9zEAlZoyvm3loyEVAl"  >
<path style="stroke: rgb(0,0,0); stroke-width: 1; stroke-dasharray: none; stroke-linecap: butt; stroke-dashoffset: 0; stroke-linejoin: miter; stroke-miterlimit: 4; fill: rgb(255,255,255); fill-opacity: 0; fill-rule: nonzero; opacity: 1;" vector-effect="non-scaling-stroke"  transform=" translate(0, 0)" d="M -3.58884 -16.7898 C -2.4267399999999997 -10.63069 1.3016800000000006 -4.31587 2.0414600000000003 -0.21055000000000135 C 5.52309 19.11039 2.0414600000000003 16.69296 2.0414600000000003 16.69296" stroke-linecap="round" />
</g>
<g transform="matrix(2.28 0 0 2.28 444.93 360.21)" id="u8BN4qyFRi-WAvqiQdMkd"  >
<path style="stroke: rgb(0,0,0); stroke-width: 1; stroke-dasharray: none; stroke-linecap: butt; stroke-dashoffset: 0; stroke-linejoin: miter; stroke-miterlimit: 4; fill: rgb(255,255,255); fill-opacity: 0; fill-rule: nonzero; opacity: 1;" vector-effect="non-scaling-stroke"  transform=" translate(0, 0)" d="M 4.97347 -4.64191 L -4.9734799999999995 -3.9787800000000004 L -4.31035 4.641909999999999" stroke-linecap="round" />
</g>
<g transform="matrix(2.1 0 0 2.1 431.92 360.07)" id="_LzHQH6E_R40GA62r87rc"  >
<path style="stroke: rgb(0,0,0); stroke-width: 1; stroke-dasharray: none; stroke-linecap: butt; stroke-dashoffset: 0; stroke-linejoin: miter; stroke-miterlimit: 4; fill: rgb(255,255,255); fill-opacity: 0; fill-rule: nonzero; opacity: 1;" vector-effect="non-scaling-stroke"  transform=" translate(0, 0)" d="M -7.62599 4.97347 L -8.28912 -3.64722 L 7.6259999999999994 -4.97348 L 8.28913 4.973469999999999" stroke-linecap="round" />
</g>
<g transform="matrix(2.1 0 0 2.1 243.7 354.66)" id="SVJch2bJ8meG5kctPpqJE"  >
<filter id="SVGID_157" y="-62%" height="224%" x="-25%" width="150%" >
	<feGaussianBlur in="SourceAlpha" stdDeviation="3"></feGaussianBlur>
	<feOffset dx="0" dy="-2" result="oBlur" ></feOffset>
	<feFlood flood-color="rgb(177,224,255)" flood-opacity="0.54"/>
	<feComposite in2="oBlur" operator="in" />
	<feMerge>
		<feMergeNode></feMergeNode>
		<feMergeNode in="SourceGraphic"></feMergeNode>
	</feMerge>
</filter>
<path style="stroke: rgb(0,0,0); stroke-width: 1; stroke-dasharray: none; stroke-linecap: butt; stroke-dashoffset: 0; stroke-linejoin: miter; stroke-miterlimit: 4; fill: rgb(241,243,251); fill-rule: nonzero; opacity: 1;filter: url(#SVGID_157);" vector-effect="non-scaling-stroke"  transform=" translate(0, 0)" d="M 64.32361 8.45225 L 52.38727 -9.615390000000001 L -51.061009999999996 -9.615390000000001 L -64.32361 6.136599999999998 L -64.32361 9.615379999999998" stroke-linecap="round" />
</g>
</svg>